<svg width="28" height="28" viewBox="0 0 28 28" fill="none" xmlns="http://www.w3.org/2000/svg">
<rect opacity="0.4" width="28" height="28" rx="4" fill="#323438"/>
<path d="M10.2539 19.8906C10.0625 20.0273 9.86198 20.041 9.65234 19.9316C9.44271 19.8223 9.33789 19.6491 9.33789 19.4121V10.0879C9.33789 9.60482 9.50651 9.19466 9.84375 8.85742C10.1901 8.51107 10.6048 8.33789 11.0879 8.33789H16.9121C17.3952 8.33789 17.8053 8.51107 18.1426 8.85742C18.4889 9.19466 18.6621 9.60482 18.6621 10.0879V19.4121C18.6621 19.6491 18.5573 19.8223 18.3477 19.9316C18.138 20.041 17.9375 20.0273 17.7461 19.8906L14 17.2109L10.2539 19.8906Z" fill="white"/>
</svg>
