<svg width="28" height="28" viewBox="0 0 28 28" fill="none" xmlns="http://www.w3.org/2000/svg">
<rect opacity="0.4" width="28" height="28" rx="4" fill="#323438"/>
<path d="M17.7461 19.8906C17.7917 19.9271 17.8418 19.9544 17.8965 19.9727C17.9603 19.9909 18.0241 20 18.0879 20C18.2428 20 18.375 19.9453 18.4844 19.8359C18.6029 19.7174 18.6621 19.5762 18.6621 19.4121V10.0879C18.6621 9.8418 18.6165 9.61393 18.5254 9.4043C18.4342 9.18555 18.3112 8.9987 18.1562 8.84375C17.9922 8.6888 17.8053 8.56576 17.5957 8.47461C17.3861 8.38346 17.1582 8.33789 16.9121 8.33789H11.0879C10.8418 8.33789 10.6094 8.38346 10.3906 8.47461C10.181 8.56576 9.9987 8.6888 9.84375 8.84375C9.6888 9.00781 9.56576 9.19466 9.47461 9.4043C9.38346 9.61393 9.33789 9.8418 9.33789 10.0879V19.4121C9.33789 19.4759 9.34701 19.5352 9.36523 19.5898C9.38346 19.6445 9.41081 19.6992 9.44727 19.7539C9.53841 19.8815 9.66146 19.959 9.81641 19.9863C9.98047 20.0137 10.1263 19.9818 10.2539 19.8906L14 17.2109L17.7461 19.8906ZM17.5 18.2773L14.3418 16.0215C14.2324 15.9486 14.1139 15.9167 13.9863 15.9258C13.8678 15.9258 13.7585 15.9577 13.6582 16.0215L10.5 18.2773V10.0879C10.5 10.0059 10.5137 9.92839 10.541 9.85547C10.5775 9.78255 10.6185 9.72331 10.6641 9.67773C10.7188 9.62305 10.7826 9.58203 10.8555 9.55469C10.9284 9.51823 11.0059 9.5 11.0879 9.5H16.9121C16.9941 9.5 17.0716 9.51823 17.1445 9.55469C17.2174 9.58203 17.2767 9.62305 17.3223 9.67773C17.377 9.72331 17.418 9.78255 17.4453 9.85547C17.4818 9.92839 17.5 10.0059 17.5 10.0879V18.2773Z" fill="white"/>
</svg>
