<svg width="27" height="27" viewBox="0 0 27 27" fill="none" xmlns="http://www.w3.org/2000/svg">
<path d="M13.3281 6C14.3385 6 15.2917 6.19271 16.1875 6.57812C17.0729 6.96354 17.849 7.48958 18.5156 8.15625C19.1823 8.8125 19.7031 9.58854 20.0781 10.4844C20.4635 11.3698 20.6562 12.3177 20.6562 13.3281C20.6562 14.349 20.4635 15.3021 20.0781 16.1875C19.7031 17.0833 19.1823 17.8646 18.5156 18.5312C17.849 19.1875 17.0729 19.7083 16.1875 20.0938C15.2917 20.4792 14.3385 20.6719 13.3281 20.6719C12.3177 20.6719 11.3646 20.4792 10.4688 20.0938C9.58333 19.7083 8.80729 19.1875 8.14062 18.5312C7.47396 17.8646 6.95312 17.0833 6.57812 16.1875C6.19271 15.3021 6 14.349 6 13.3281C6 12.3177 6.19271 11.3698 6.57812 10.4844C6.95312 9.58854 7.47396 8.8125 8.14062 8.15625C8.80729 7.48958 9.58333 6.96354 10.4688 6.57812C11.3646 6.19271 12.3177 6 13.3281 6ZM13.3281 7.32812C12.4948 7.32812 11.7188 7.48958 11 7.8125C10.2708 8.125 9.63021 8.55208 9.07812 9.09375C8.53646 9.63542 8.10938 10.2708 7.79688 11C7.48438 11.7292 7.32812 12.5052 7.32812 13.3281C7.32812 14.1615 7.48438 14.9427 7.79688 15.6719C8.10938 16.401 8.53646 17.0365 9.07812 17.5781C9.63021 18.1198 10.2708 18.5469 11 18.8594C11.7188 19.1719 12.4948 19.3281 13.3281 19.3281C14.1615 19.3281 14.9375 19.1719 15.6562 18.8594C16.3854 18.5469 17.0208 18.1198 17.5625 17.5781C18.1146 17.0365 18.5469 16.401 18.8594 15.6719C19.1719 14.9427 19.3281 14.1615 19.3281 13.3281C19.3281 12.5052 19.1719 11.7292 18.8594 11C18.5469 10.2708 18.1146 9.63542 17.5625 9.09375C17.0208 8.55208 16.3854 8.125 15.6562 7.8125C14.9375 7.48958 14.1615 7.32812 13.3281 7.32812ZM16.1562 10.7188C16.2188 10.5729 16.3281 10.4635 16.4844 10.3906C16.6406 10.3177 16.7969 10.3073 16.9531 10.3594C17.1302 10.4219 17.2604 10.5365 17.3438 10.7031C17.4271 10.8594 17.4427 11.026 17.3906 11.2031L17.1406 12H17.3281C17.5156 12 17.6719 12.0677 17.7969 12.2031C17.9323 12.3281 18 12.4844 18 12.6719C18 12.8385 17.9427 12.9844 17.8281 13.1094C17.7135 13.2344 17.5729 13.3073 17.4062 13.3281H17.3281H16.7031L15.6719 16.5625C15.6719 16.5625 15.6667 16.5677 15.6562 16.5781C15.6562 16.5781 15.6562 16.5833 15.6562 16.5938V16.6094C15.6458 16.6094 15.6406 16.6146 15.6406 16.625C15.6406 16.6354 15.6354 16.6406 15.625 16.6406C15.625 16.651 15.6198 16.6615 15.6094 16.6719C15.6094 16.6823 15.6094 16.6875 15.6094 16.6875C15.599 16.6979 15.5938 16.7031 15.5938 16.7031C15.5938 16.7031 15.5938 16.7083 15.5938 16.7188C15.5833 16.7188 15.5729 16.724 15.5625 16.7344C15.5625 16.7448 15.5625 16.75 15.5625 16.75C15.5625 16.75 15.5573 16.7552 15.5469 16.7656C15.5469 16.7656 15.5469 16.7708 15.5469 16.7812C15.5365 16.7812 15.526 16.7865 15.5156 16.7969C15.5156 16.7969 15.5156 16.8021 15.5156 16.8125C15.5052 16.8125 15.5 16.8177 15.5 16.8281C15.5 16.8281 15.4948 16.8281 15.4844 16.8281C15.4844 16.8385 15.4792 16.8438 15.4688 16.8438C15.4688 16.8438 15.4635 16.849 15.4531 16.8594C15.4531 16.8594 15.4479 16.8646 15.4375 16.875C15.4271 16.875 15.4167 16.8802 15.4062 16.8906C15.4062 16.8906 15.401 16.8906 15.3906 16.8906C15.3906 16.901 15.3854 16.9062 15.375 16.9062C15.3646 16.9167 15.3542 16.9271 15.3438 16.9375C15.3438 16.9375 15.3385 16.9375 15.3281 16.9375C15.3177 16.9375 15.3021 16.9427 15.2812 16.9531C15.2708 16.9635 15.2604 16.9688 15.25 16.9688L15.3125 16.9531C15.3021 16.9531 15.2917 16.9531 15.2812 16.9531C15.2812 16.9531 15.276 16.9583 15.2656 16.9688H15.25C15.2396 16.9688 15.2344 16.9688 15.2344 16.9688C15.2344 16.9688 15.2292 16.9688 15.2188 16.9688C15.2188 16.9792 15.2135 16.9844 15.2031 16.9844C15.1927 16.9844 15.1823 16.9844 15.1719 16.9844C15.1615 16.9844 15.1562 16.9844 15.1562 16.9844C15.1458 16.9948 15.1354 17 15.125 17C15.1146 17 15.1042 17 15.0938 17C15.0938 17 15.0885 17 15.0781 17C15.0677 17 15.0573 17 15.0469 17C15.0365 17 15.026 17 15.0156 17C15.0052 17 14.9948 17 14.9844 17C14.974 17 14.9635 17 14.9531 17C14.9531 17 14.9479 17 14.9375 17C14.9375 17 14.9375 16.9948 14.9375 16.9844C14.9167 16.9844 14.8958 16.9844 14.875 16.9844C14.8646 16.974 14.8542 16.9688 14.8438 16.9688L14.8906 16.9844C14.8802 16.9844 14.875 16.9844 14.875 16.9844C14.875 16.9844 14.8698 16.9792 14.8594 16.9688H14.8438C14.8333 16.9688 14.8281 16.9688 14.8281 16.9688C14.8177 16.9583 14.8073 16.9531 14.7969 16.9531C14.7969 16.9531 14.7917 16.9531 14.7812 16.9531C14.7708 16.9427 14.7656 16.9375 14.7656 16.9375C14.7656 16.9375 14.7604 16.9375 14.75 16.9375C14.75 16.9375 14.7448 16.9375 14.7344 16.9375C14.724 16.9271 14.7188 16.9167 14.7188 16.9062C14.7083 16.9062 14.7031 16.9062 14.7031 16.9062C14.7031 16.9062 14.6979 16.9062 14.6875 16.9062C14.6875 16.8958 14.6823 16.8906 14.6719 16.8906C14.6615 16.8802 14.6562 16.875 14.6562 16.875C14.6458 16.875 14.6354 16.875 14.625 16.875C14.625 16.8646 14.625 16.8594 14.625 16.8594C14.625 16.849 14.6198 16.8438 14.6094 16.8438C14.6094 16.8438 14.6042 16.8385 14.5938 16.8281C14.5938 16.8281 14.5885 16.8281 14.5781 16.8281C14.5781 16.8177 14.5781 16.8125 14.5781 16.8125C14.5677 16.8021 14.5573 16.7969 14.5469 16.7969C14.5469 16.7865 14.5469 16.7812 14.5469 16.7812C14.5365 16.7708 14.5312 16.7656 14.5312 16.7656C14.5312 16.7552 14.526 16.75 14.5156 16.75C14.5156 16.75 14.5104 16.7448 14.5 16.7344C14.5 16.724 14.5 16.7188 14.5 16.7188C14.5 16.7083 14.4948 16.7031 14.4844 16.7031C14.4844 16.7031 14.4844 16.6979 14.4844 16.6875C14.474 16.6875 14.4688 16.6875 14.4688 16.6875C14.4688 16.6771 14.4635 16.6667 14.4531 16.6562C14.4531 16.6458 14.4531 16.6406 14.4531 16.6406C14.4531 16.6302 14.4479 16.625 14.4375 16.625C14.4375 16.6146 14.4323 16.6042 14.4219 16.5938C14.4219 16.5729 14.4167 16.5521 14.4062 16.5312L14.4219 16.5938C14.4219 16.5833 14.4219 16.5781 14.4219 16.5781C14.4219 16.5677 14.4167 16.5625 14.4062 16.5625V16.5312L13.375 13.3281H13.2812L12.25 16.5625C12.2396 16.5625 12.2344 16.5677 12.2344 16.5781C12.2344 16.5781 12.2344 16.5833 12.2344 16.5938L12.25 16.5312C12.2396 16.5521 12.2292 16.5729 12.2188 16.5938C12.2188 16.6042 12.2188 16.6146 12.2188 16.625C12.2083 16.625 12.2031 16.6302 12.2031 16.6406C12.2031 16.6406 12.2031 16.6458 12.2031 16.6562C12.1927 16.6667 12.1875 16.6771 12.1875 16.6875C12.1875 16.6875 12.1823 16.6875 12.1719 16.6875C12.1719 16.6979 12.1667 16.7031 12.1562 16.7031C12.1562 16.7031 12.1562 16.7083 12.1562 16.7188C12.1562 16.7188 12.151 16.724 12.1406 16.7344C12.1406 16.7448 12.1406 16.75 12.1406 16.75C12.1302 16.75 12.125 16.7552 12.125 16.7656C12.125 16.7656 12.1198 16.7708 12.1094 16.7812C12.1094 16.7812 12.1042 16.7865 12.0938 16.7969C12.0938 16.7969 12.0885 16.8021 12.0781 16.8125C12.0781 16.8125 12.0729 16.8177 12.0625 16.8281C12.0521 16.8385 12.0417 16.8438 12.0312 16.8438C12.0312 16.8438 12.0312 16.849 12.0312 16.8594C12.0312 16.8594 12.026 16.8646 12.0156 16.875C12.0156 16.875 12.0104 16.875 12 16.875C12 16.875 11.9948 16.8802 11.9844 16.8906C11.974 16.8906 11.9688 16.8958 11.9688 16.9062C11.9583 16.9062 11.9531 16.9062 11.9531 16.9062C11.9531 16.9062 11.9479 16.9062 11.9375 16.9062C11.9375 16.9167 11.9323 16.9271 11.9219 16.9375C11.9115 16.9375 11.9062 16.9375 11.9062 16.9375C11.8958 16.9375 11.8906 16.9375 11.8906 16.9375C11.8906 16.9375 11.8854 16.9427 11.875 16.9531C11.8646 16.9531 11.8542 16.9531 11.8438 16.9531C11.8438 16.9531 11.8385 16.9583 11.8281 16.9688C11.8281 16.9688 11.8229 16.9688 11.8125 16.9688H11.7969C11.7865 16.9792 11.7812 16.9844 11.7812 16.9844C11.7812 16.9844 11.776 16.9844 11.7656 16.9844L11.8125 16.9688C11.8021 16.9688 11.7865 16.974 11.7656 16.9844C11.7552 16.9844 11.7396 16.9844 11.7188 16.9844C11.7188 16.9948 11.7135 17 11.7031 17C11.6927 17 11.6823 17 11.6719 17C11.6615 17 11.651 17 11.6406 17C11.6406 17 11.6354 17 11.625 17C11.625 17 11.6198 17 11.6094 17C11.6094 17 11.6042 17 11.5938 17C11.5938 17 11.5885 17 11.5781 17C11.5677 17 11.5573 17 11.5469 17C11.5469 17 11.5417 17 11.5312 17C11.5312 17 11.526 17 11.5156 17C11.5156 17 11.5104 16.9948 11.5 16.9844C11.5 16.9844 11.4948 16.9844 11.4844 16.9844C11.474 16.9844 11.4635 16.9844 11.4531 16.9844C11.4531 16.9844 11.4479 16.9844 11.4375 16.9844C11.4375 16.9844 11.4375 16.9792 11.4375 16.9688C11.4271 16.9688 11.4219 16.9688 11.4219 16.9688C11.4219 16.9688 11.4167 16.9688 11.4062 16.9688H11.3906C11.3802 16.9583 11.3698 16.9531 11.3594 16.9531C11.3594 16.9531 11.3542 16.9531 11.3438 16.9531L11.4062 16.9688C11.3958 16.9688 11.3802 16.9635 11.3594 16.9531C11.349 16.9427 11.3385 16.9375 11.3281 16.9375C11.3177 16.9375 11.3073 16.9375 11.2969 16.9375C11.2969 16.9271 11.2917 16.9167 11.2812 16.9062C11.2812 16.9062 11.276 16.9062 11.2656 16.9062C11.2656 16.9062 11.2656 16.901 11.2656 16.8906C11.2552 16.8906 11.2448 16.8906 11.2344 16.8906C11.2344 16.8802 11.2344 16.875 11.2344 16.875C11.224 16.875 11.2135 16.875 11.2031 16.875C11.2031 16.8646 11.2031 16.8594 11.2031 16.8594C11.1927 16.849 11.1823 16.8438 11.1719 16.8438C11.1719 16.8438 11.1719 16.8385 11.1719 16.8281C11.1615 16.8281 11.1562 16.8281 11.1562 16.8281C11.1562 16.8177 11.151 16.8125 11.1406 16.8125C11.1406 16.8021 11.1354 16.7969 11.125 16.7969C11.125 16.7865 11.1198 16.7812 11.1094 16.7812C11.1094 16.7708 11.1042 16.7656 11.0938 16.7656C11.0938 16.7552 11.0938 16.75 11.0938 16.75C11.0938 16.75 11.0885 16.7448 11.0781 16.7344C11.0781 16.724 11.0729 16.7188 11.0625 16.7188C11.0625 16.7083 11.0625 16.7031 11.0625 16.7031C11.0625 16.7031 11.0573 16.6979 11.0469 16.6875C11.0469 16.6875 11.0417 16.6823 11.0312 16.6719C11.0312 16.6615 11.0312 16.651 11.0312 16.6406C11.0312 16.6406 11.026 16.6406 11.0156 16.6406C11.0156 16.6406 11.0156 16.6354 11.0156 16.625C11.0156 16.6146 11.0104 16.6094 11 16.6094V16.5938C11 16.5833 10.9948 16.5781 10.9844 16.5781C10.9844 16.5677 10.9844 16.5625 10.9844 16.5625V16.5312L9.95312 13.3281H9.32812C9.14062 13.3281 8.97917 13.2656 8.84375 13.1406C8.71875 13.0052 8.65625 12.849 8.65625 12.6719C8.65625 12.4948 8.71354 12.3438 8.82812 12.2188C8.94271 12.0938 9.08333 12.0208 9.25 12H9.32812H9.51562L9.26562 11.2031C9.21354 11.026 9.22917 10.8594 9.3125 10.7031C9.39583 10.5365 9.52604 10.4219 9.70312 10.3594C9.85938 10.3073 10.0156 10.3177 10.1719 10.3906C10.3281 10.4635 10.4375 10.5729 10.5 10.7188L10.5312 10.7969L10.9219 12H12.3125L12.6875 10.7969L12.7031 10.7812C12.7031 10.7708 12.7031 10.7656 12.7031 10.7656C12.7135 10.7552 12.7188 10.7448 12.7188 10.7344L12.6875 10.7969C12.6979 10.7865 12.7031 10.776 12.7031 10.7656C12.7135 10.7448 12.724 10.7292 12.7344 10.7188C12.7344 10.7083 12.7344 10.7031 12.7344 10.7031C12.7344 10.6927 12.7396 10.6823 12.75 10.6719C12.7604 10.6615 12.7656 10.651 12.7656 10.6406C12.776 10.6302 12.7812 10.6198 12.7812 10.6094C12.7917 10.6094 12.7969 10.6094 12.7969 10.6094C12.7969 10.599 12.8021 10.5885 12.8125 10.5781C12.8229 10.5677 12.8281 10.5625 12.8281 10.5625C12.8281 10.5521 12.8281 10.5469 12.8281 10.5469C12.8385 10.5365 12.849 10.5312 12.8594 10.5312C12.8594 10.5208 12.8594 10.5156 12.8594 10.5156C12.8698 10.5052 12.8802 10.5 12.8906 10.5C12.901 10.4896 12.9062 10.4844 12.9062 10.4844C12.9167 10.474 12.9219 10.4688 12.9219 10.4688C12.9323 10.4688 12.9375 10.4635 12.9375 10.4531C12.9479 10.4531 12.9531 10.4531 12.9531 10.4531C12.9635 10.4427 12.9688 10.4375 12.9688 10.4375C12.9792 10.4375 12.9844 10.4375 12.9844 10.4375C12.9948 10.4271 13 10.4219 13 10.4219C13.0104 10.4115 13.0156 10.4062 13.0156 10.4062C13.026 10.4062 13.0365 10.4062 13.0469 10.4062C13.0573 10.3958 13.0677 10.3906 13.0781 10.3906C13.099 10.3802 13.1146 10.3698 13.125 10.3594L13.0625 10.3906C13.0729 10.3906 13.0781 10.3906 13.0781 10.3906C13.0885 10.3802 13.099 10.375 13.1094 10.375L13.125 10.3594C13.1354 10.3594 13.1406 10.3594 13.1406 10.3594C13.151 10.3594 13.1562 10.3594 13.1562 10.3594C13.1667 10.3594 13.1719 10.3542 13.1719 10.3438C13.1823 10.3438 13.1875 10.3438 13.1875 10.3438C13.1979 10.3438 13.2083 10.3438 13.2188 10.3438C13.2292 10.3438 13.2344 10.3438 13.2344 10.3438C13.2344 10.3438 13.2396 10.3438 13.25 10.3438C13.2604 10.3438 13.2656 10.3438 13.2656 10.3438C13.276 10.3333 13.2865 10.3281 13.2969 10.3281C13.3073 10.3281 13.3177 10.3281 13.3281 10.3281C13.3385 10.3281 13.3438 10.3281 13.3438 10.3281C13.3542 10.3281 13.3594 10.3281 13.3594 10.3281C13.3698 10.3281 13.375 10.3333 13.375 10.3438C13.3854 10.3438 13.3958 10.3438 13.4062 10.3438C13.4167 10.3438 13.4219 10.3438 13.4219 10.3438C13.4219 10.3438 13.4271 10.3438 13.4375 10.3438C13.4479 10.3438 13.4531 10.3438 13.4531 10.3438C13.4635 10.3438 13.474 10.3438 13.4844 10.3438C13.4844 10.3542 13.4844 10.3594 13.4844 10.3594C13.4948 10.3594 13.5052 10.3594 13.5156 10.3594C13.526 10.3594 13.5312 10.3594 13.5312 10.3594L13.5469 10.375C13.5573 10.375 13.5625 10.3802 13.5625 10.3906C13.5729 10.3906 13.5833 10.3906 13.5938 10.3906L13.5312 10.3594C13.5417 10.3698 13.5521 10.3802 13.5625 10.3906C13.5833 10.3906 13.599 10.3958 13.6094 10.4062C13.6198 10.4062 13.625 10.4062 13.625 10.4062C13.6354 10.4062 13.6458 10.4115 13.6562 10.4219C13.6562 10.4219 13.6562 10.4271 13.6562 10.4375C13.6667 10.4375 13.6771 10.4375 13.6875 10.4375C13.6875 10.4375 13.6875 10.4427 13.6875 10.4531C13.6979 10.4531 13.7083 10.4531 13.7188 10.4531C13.7188 10.4635 13.7188 10.4688 13.7188 10.4688C13.7292 10.4688 13.7396 10.474 13.75 10.4844C13.75 10.4844 13.75 10.4896 13.75 10.5C13.7604 10.5 13.7656 10.5 13.7656 10.5C13.776 10.5 13.7812 10.5052 13.7812 10.5156C13.7917 10.5156 13.7969 10.5208 13.7969 10.5312C13.8073 10.5312 13.8125 10.5365 13.8125 10.5469C13.8229 10.5469 13.8281 10.5521 13.8281 10.5625C13.8281 10.5625 13.8281 10.5677 13.8281 10.5781C13.8385 10.5781 13.8438 10.5781 13.8438 10.5781C13.8542 10.5885 13.8594 10.599 13.8594 10.6094C13.8594 10.6094 13.8646 10.6094 13.875 10.6094C13.875 10.6198 13.875 10.6302 13.875 10.6406C13.8854 10.6406 13.8906 10.6406 13.8906 10.6406C13.8906 10.651 13.8906 10.6615 13.8906 10.6719C13.901 10.6719 13.9062 10.6719 13.9062 10.6719C13.9167 10.6823 13.9219 10.6927 13.9219 10.7031C13.9219 10.7031 13.9219 10.7083 13.9219 10.7188C13.9323 10.7292 13.9375 10.7448 13.9375 10.7656C13.9479 10.776 13.9583 10.7865 13.9688 10.7969L13.9375 10.7344C13.9375 10.7448 13.9375 10.7552 13.9375 10.7656C13.9479 10.7656 13.9531 10.7708 13.9531 10.7812L13.9688 10.7969L14.3438 12H15.7344L16.125 10.7969L16.1562 10.7188ZM11.875 13.3281H11.3438L11.6094 14.1562L11.875 13.3281ZM15.3125 13.3281H14.7812L15.0469 14.1562L15.3125 13.3281Z" fill="#2196F3"/>
</svg>
